<svg id="Layer_1" data-name="Layer 1" xmlns="http://www.w3.org/2000/svg" xmlns:xlink="http://www.w3.org/1999/xlink" viewBox="0 0 1713.2 715.61"><defs><style>.cls-1{fill:none;}.cls-2{clip-path:url(#clip-path);}.cls-3{fill:#facb80;}.cls-4{fill:#fcd08a;isolation:isolate;opacity:0.05;}.cls-5{fill:#fbd8b0;}</style><clipPath id="clip-path" transform="translate(0 0)"><rect class="cls-1" x="21.41" y="-8.83" width="1692" height="517"/></clipPath></defs><g class="cls-2"><path class="cls-3" d="M0,543.17c62.21-79,157.84-232.31,251.61-305.49C599.17-33,755.66,269.63,1317.89,33.29,1674.34-116.55,1723.41,272.47,1711.68,542Z" transform="translate(0 0)"/><path class="cls-4" d="M264.89,715.6c-41.4-185.71,96.46-248,228-344.26,255.55-186.63,370.26-9.86,783.64-172.8s264.58,517.07,264.58,517.07Z" transform="translate(0 0)"/><path class="cls-5" d="M1677.73,715.6c41.4-185.71-96.46-248-228-344.26-255.58-186.63-370.32-9.86-783.67-172.81S401.49,715.6,401.49,715.6Z" transform="translate(0 0)"/></g></svg>