<?xml version="1.0" encoding="utf-8"?>
<!-- Generator: Adobe Illustrator 26.0.1, SVG Export Plug-In . SVG Version: 6.00 Build 0)  -->
<svg version="1.1" id="Layer_1" xmlns="http://www.w3.org/2000/svg" xmlns:xlink="http://www.w3.org/1999/xlink" x="0px" y="0px"
	 viewBox="0 0 1713.2 715.6" style="enable-background:new 0 0 1713.2 715.6;" xml:space="preserve">
<style type="text/css">
	.st0{clip-path:url(#SVGID_00000059304076410107237930000013555863656410870200_);}
	.st1{fill:#FACB80;}
	.st2{opacity:5.000000e-02;fill:#FCD08A;enable-background:new    ;}
	.st3{fill:#FBD8B0;}
</style>
<g>
	<defs>
		<rect id="SVGID_1_" y="-0.8" width="1711.4" height="721.8"/>
	</defs>
	<clipPath id="SVGID_00000128448589511513730370000002247815955072717988_">
		<use xlink:href="#SVGID_1_"  style="overflow:visible;"/>
	</clipPath>
	<g style="clip-path:url(#SVGID_00000128448589511513730370000002247815955072717988_);">
		<path class="st1" d="M-21.7,769.9C41.3,659.6,138,445.5,232.8,343.3C584.4-34.6,742.7,388,1311.4,58
			c360.5-209.2,410.2,333.9,398.3,710.3L-21.7,769.9z"/>
		<path class="st2" d="M246.3,1010.6C204.4,751.3,343.8,664.4,476.9,530c258.5-260.6,374.5-13.8,792.6-241.3
			s267.6,721.9,267.6,721.9L246.3,1010.6z"/>
		<path class="st3" d="M1675.3,1010.6c41.9-259.3-97.6-346.3-230.6-480.7c-258.5-260.6-374.6-13.8-792.7-241.3
			s-267.6,721.9-267.6,721.9H1675.3z"/>
	</g>
</g>
</svg>
