<?xml version="1.0" encoding="utf-8"?>
<!-- Generator: Adobe Illustrator 26.0.1, SVG Export Plug-In . SVG Version: 6.00 Build 0)  -->
<svg version="1.1" id="Layer_1" xmlns="http://www.w3.org/2000/svg" xmlns:xlink="http://www.w3.org/1999/xlink" x="0px" y="0px"
	 viewBox="0 0 136 28" style="enable-background:new 0 0 136 28;" xml:space="preserve">
<style type="text/css">
	.st0{fill:#705CFF;}
	.st1{font-family:'FranklinGothic-Demi';}
	.st2{font-size:25px;}
</style>
<g>
	<path class="st0" d="M22.8,10.7l-5.2,5l-1.3-1.3c-0.6-0.6-1.6-0.6-2.3,0c-0.6,0.6-0.6,1.6,0,2.3l2.3,2.3c0.4,0.4,0.8,0.5,1.3,0.5
		s1-0.2,1.5-0.5l6-5.9c0.6-0.6,0.6-1.6,0-2.3C24.4,10.3,23.5,10.1,22.8,10.7z"/>
	<path class="st0" d="M34.4,8.8c-1.6-1.8-3.9-3.1-6.3-3.6c-1.3-2.1-3.4-3.7-5.7-4.6C21.3,0.2,20.1,0,18.8,0C12.9,0,8,4.6,7.7,10.3
		C3.3,10.9,0,14.6,0,19c0,4.9,4.1,9,9,9h16.9c6.4,0,11.6-5.2,11.6-11.5C37.5,13.6,36.4,10.9,34.4,8.8z M25.8,24.9h-17
		c-3.3,0-5.7-2.5-5.7-5.7c0-3.2,2.6-5.7,5.7-5.7h1.9v-2.3c0-4.4,3.6-8,8-8c1,0,1.8,0.2,2.6,0.5c1.8,0.6,3.4,1.9,4.4,3.7l0.5,0.8
		L27,8.5c1.9,0.2,3.9,1.1,5.2,2.6c1.5,1.6,2.3,3.6,2.3,5.7C34.2,21.1,30.5,24.9,25.8,24.9z"/>
</g>
<text transform="matrix(1.1203 0 0 1 41.0851 22.3189)" class="st0 st1 st2">Adu Matory</text>
</svg>
